<svg width="49" height="48" viewBox="0 0 49 48" fill="none" xmlns="http://www.w3.org/2000/svg">
<circle cx="24.6667" cy="24" r="24" fill="#25D366"/>
<circle cx="24.6667" cy="24" r="24" fill="white" fill-opacity="0.9"/>
<g clip-path="url(#clip0_1316_7586)">
<path d="M15.1667 33.1731L16.5161 28.2476C15.4722 26.435 15.0554 24.3286 15.3304 22.255C15.6053 20.1814 16.5567 18.2564 18.0369 16.7785C19.5172 15.3006 21.4437 14.3522 23.5177 14.0805C25.5917 13.8088 27.6974 14.2289 29.5084 15.2757C31.3194 16.3224 32.7345 17.9374 33.5343 19.8702C34.3342 21.803 34.474 23.9456 33.9323 25.966C33.3905 27.9864 32.1974 29.7716 30.5378 31.0449C28.8783 32.3182 26.845 33.0085 24.7533 33.0087C23.1666 33.0078 21.6054 32.6096 20.212 31.8506L15.1667 33.1731ZM20.439 30.1349L20.7285 30.3136C21.946 31.0346 23.3348 31.4154 24.7497 31.4163C26.5019 31.4166 28.2046 30.8347 29.59 29.7619C30.9754 28.6891 31.965 27.1863 32.4032 25.4898C32.8414 23.7932 32.7034 21.9992 32.0108 20.3897C31.3183 18.7801 30.1104 17.4464 28.5773 16.5981C27.0441 15.7499 25.2725 15.4352 23.5409 15.7035C21.8094 15.9719 20.2161 16.8081 19.0116 18.0806C17.8071 19.3532 17.0597 20.9899 16.8868 22.7336C16.714 24.4773 17.1255 26.2289 18.0567 27.7132L18.2354 28.0117L17.4365 30.9266L20.439 30.1349Z" fill="#25D366"/>
<path d="M20.439 30.1349L20.7285 30.3136C21.946 31.0346 23.3348 31.4154 24.7497 31.4163C26.5019 31.4166 28.2046 30.8347 29.59 29.7619C30.9754 28.6891 31.965 27.1863 32.4032 25.4898C32.8414 23.7932 32.7034 21.9992 32.0108 20.3897C31.3183 18.7801 30.1104 17.4464 28.5773 16.5981C27.0441 15.7499 25.2725 15.4352 23.5409 15.7035C21.8094 15.9719 20.2161 16.8081 19.0116 18.0806C17.8071 19.3532 17.0597 20.9899 16.8868 22.7336C16.714 24.4773 17.1255 26.2289 18.0567 27.7132L18.2354 28.0117L17.4365 30.9266L20.439 30.1349Z" fill="#25D366"/>
<path fill-rule="evenodd" clip-rule="evenodd" d="M29.5435 25.7635C29.4845 25.6634 29.3254 25.6045 29.0877 25.4865C28.85 25.3686 27.683 24.7931 27.465 24.7127C27.2469 24.6322 27.0896 24.5947 26.9288 24.8324C26.768 25.0701 26.3158 25.6045 26.1782 25.7635C26.0406 25.9226 25.8994 25.9422 25.6635 25.8225C24.9668 25.5428 24.324 25.1443 23.7637 24.6447C23.2444 24.1644 22.7993 23.6097 22.4429 22.9987C22.3035 22.761 22.4268 22.6413 22.5466 22.5144C22.6663 22.3875 22.7843 22.2356 22.904 22.098C23.0023 21.9781 23.0824 21.8444 23.1417 21.7012C23.173 21.6356 23.1876 21.5632 23.1841 21.4905C23.1807 21.4179 23.1594 21.3472 23.1221 21.2848C23.0631 21.1668 22.5859 19.998 22.3893 19.5226C22.1927 19.0472 22.0015 19.1223 21.8531 19.1133C21.7048 19.1044 21.5565 19.1133 21.3992 19.1133C21.2771 19.1154 21.1567 19.143 21.0459 19.1944C20.935 19.2458 20.8362 19.3199 20.7558 19.4118C20.4893 19.6645 20.2779 19.9696 20.1348 20.3079C19.9918 20.6462 19.9203 21.0105 19.9248 21.3777C19.9248 22.5466 20.7755 23.6761 20.8952 23.8351C21.0149 23.9942 22.5698 26.3926 24.9522 27.4203C25.3945 27.6111 25.8467 27.7782 26.3068 27.9207C26.7914 28.0678 27.3035 28.1002 27.8027 28.0154C28.2585 27.9475 29.2075 27.4399 29.4112 26.8859C29.615 26.3319 29.6025 25.8618 29.5435 25.7635Z" fill="white"/>
</g>
<defs>
<clipPath id="clip0_1316_7586">
<rect width="20" height="20" fill="white" transform="translate(14.6667 14)"/>
</clipPath>
</defs>
</svg>
