<svg width="48" height="48" viewBox="0 0 48 48" fill="none" xmlns="http://www.w3.org/2000/svg">
<circle cx="24" cy="24" r="24" fill="#F9F9F9"/>
<path d="M20.9836 21.3777C21.5636 22.5857 22.3542 23.7179 23.3555 24.7192C24.3568 25.7205 25.4891 26.5112 26.6971 27.0912C26.801 27.1411 26.8529 27.166 26.9187 27.1852C27.1523 27.2533 27.4392 27.2044 27.637 27.0627C27.6927 27.0228 27.7403 26.9752 27.8356 26.8799C28.1269 26.5886 28.2726 26.4429 28.4191 26.3477C28.9715 25.9885 29.6837 25.9885 30.2361 26.3477C30.3825 26.4429 30.5282 26.5886 30.8196 26.8799L30.9819 27.0423C31.4248 27.4852 31.6462 27.7066 31.7665 27.9444C32.0058 28.4174 32.0058 28.976 31.7665 29.4489C31.6462 29.6868 31.4248 29.9082 30.9819 30.3511L30.8506 30.4824C30.4092 30.9238 30.1886 31.1445 29.8885 31.313C29.5556 31.5 29.0385 31.6345 28.6567 31.6333C28.3126 31.6323 28.0774 31.5656 27.607 31.4321C25.0792 30.7146 22.6939 29.3609 20.7039 27.3709C18.7139 25.3809 17.3602 22.9956 16.6427 20.4678C16.5092 19.9974 16.4424 19.7622 16.4414 19.4181C16.4403 19.0362 16.5747 18.5191 16.7618 18.1862C16.9303 17.8862 17.151 17.6655 17.5923 17.2242L17.7237 17.0928C18.1666 16.6499 18.388 16.4285 18.6258 16.3082C19.0988 16.069 19.6573 16.069 20.1303 16.3082C20.3681 16.4285 20.5896 16.6499 21.0324 17.0928L21.1948 17.2552C21.4862 17.5465 21.6318 17.6922 21.7271 17.8387C22.0862 18.3911 22.0862 19.1032 21.7271 19.6557C21.6318 19.8021 21.4862 19.9478 21.1948 20.2391C21.0996 20.3344 21.0519 20.382 21.0121 20.4377C20.8704 20.6356 20.8215 20.9225 20.8896 21.1561C20.9087 21.2218 20.9337 21.2738 20.9836 21.3777Z" stroke="#2D2751" stroke-opacity="0.5" stroke-width="1.66667" stroke-linecap="round" stroke-linejoin="round"/>
</svg>
