<svg width="49" height="48" viewBox="0 0 49 48" fill="none" xmlns="http://www.w3.org/2000/svg">
<circle cx="24.8333" cy="24" r="24" fill="#F9F9F9"/>
<path d="M28.1666 20.6667V24.8333C28.1666 25.4964 28.43 26.1323 28.8988 26.6011C29.3677 27.0699 30.0036 27.3333 30.6666 27.3333C31.3297 27.3333 31.9655 27.0699 32.4344 26.6011C32.9032 26.1323 33.1666 25.4964 33.1666 24.8333V24C33.1665 22.1192 32.5301 20.2937 31.361 18.8204C30.1919 17.3471 28.5587 16.3127 26.7271 15.8852C24.8956 15.4578 22.9732 15.6625 21.2727 16.4661C19.5722 17.2697 18.1936 18.625 17.361 20.3114C16.5284 21.9979 16.2908 23.9164 16.6868 25.7551C17.0828 27.5937 18.0891 29.2444 19.5421 30.4385C20.9952 31.6327 22.8095 32.3003 24.69 32.3326C26.5705 32.365 28.4067 31.7602 29.8999 30.6167M28.1666 24C28.1666 25.8409 26.6742 27.3333 24.8333 27.3333C22.9923 27.3333 21.4999 25.8409 21.4999 24C21.4999 22.159 22.9923 20.6667 24.8333 20.6667C26.6742 20.6667 28.1666 22.159 28.1666 24Z" stroke="#2D2751" stroke-opacity="0.5" stroke-width="1.66667" stroke-linecap="round" stroke-linejoin="round"/>
</svg>
