<svg width="49" height="48" viewBox="0 0 49 48" fill="none" xmlns="http://www.w3.org/2000/svg">
<circle cx="24.5" cy="24" r="24" fill="#28A8E9"/>
<circle cx="24.5" cy="24" r="24" fill="white" fill-opacity="0.9"/>
<g clip-path="url(#clip0_1316_7594)">
<path d="M24.5 34C30.0228 34 34.5 29.5228 34.5 24C34.5 18.4772 30.0228 14 24.5 14C18.9772 14 14.5 18.4772 14.5 24C14.5 29.5228 18.9772 34 24.5 34Z" fill="#28A8E9"/>
<path d="M19.0261 23.8938C21.941 22.6233 23.8848 21.7848 24.8576 21.3781C27.6349 20.2233 28.2123 20.0221 28.5884 20.0158C28.7265 20.0127 28.862 20.0532 28.9758 20.1315C29.0553 20.2007 29.106 20.2972 29.1179 20.402C29.1381 20.5322 29.1436 20.6642 29.1343 20.7957C28.9833 22.3768 28.333 26.2145 28.0022 27.9856C27.8626 28.7403 27.5859 28.9919 27.3192 29.0108C26.7381 29.0636 26.2978 28.6271 25.7355 28.256C24.855 27.6787 24.3582 27.3202 23.5041 26.7567C22.5167 26.1064 23.1569 25.7504 23.7192 25.1642C23.8664 25.0108 26.4249 22.6837 26.4752 22.4724C26.4818 22.4412 26.4811 22.409 26.473 22.3782C26.4649 22.3474 26.4497 22.3189 26.4286 22.295C26.3981 22.2756 26.3633 22.2636 26.3273 22.2601C26.2912 22.2566 26.2548 22.2617 26.2211 22.2749C26.133 22.295 24.7272 23.2242 22.0035 25.0623C21.6043 25.3365 21.2429 25.4699 20.9192 25.4623C20.562 25.4548 19.8752 25.2611 19.3645 25.095C18.7355 24.8913 18.2399 24.7843 18.284 24.4384C18.3049 24.264 18.5523 24.0825 19.0261 23.8938Z" fill="white"/>
</g>
<defs>
<clipPath id="clip0_1316_7594">
<rect width="20" height="20" fill="white" transform="translate(14.5 14)"/>
</clipPath>
</defs>
</svg>
