<svg width="108" height="44" viewBox="0 0 108 44" fill="none" xmlns="http://www.w3.org/2000/svg">
<g clip-path="url(#clip0_1285_5335)">
<rect y="7" width="29.3333" height="29.3333" rx="8.38095" fill="#6248FF"/>
<path fill-rule="evenodd" clip-rule="evenodd" d="M12.5709 17.9033C12.5709 15.7387 14.3257 13.9839 16.4903 13.9839H18.1582V16.7775H16.4903C15.8686 16.7775 15.3646 17.2816 15.3646 17.9033C15.3646 19.3846 14.7205 20.7363 13.6778 21.6664C14.7205 22.5966 15.3646 23.9482 15.3646 25.4296C15.3646 26.0513 15.8686 26.5553 16.4903 26.5553H18.1582V29.349H16.4903C14.3257 29.349 12.5709 27.5942 12.5709 25.4296C12.5709 24.3372 11.7853 23.4031 10.709 23.2159L9.77734 23.0539V20.279L10.709 20.117C11.7853 19.9298 12.5709 18.9957 12.5709 17.9033Z" fill="white"/>
</g>
<path d="M38.5684 24.1424V24.3739C38.5684 25.9269 39.2725 27.1665 40.6808 28.0925C42.0988 29.0185 44.0521 29.4815 46.5408 29.4815C49.0391 29.4815 50.9635 29.0185 52.314 28.0925C53.6644 27.1568 54.3396 25.9559 54.3396 24.4897C54.3396 23.2068 53.8139 22.1843 52.7625 21.4222C51.7111 20.6506 50.134 20.1056 48.0311 19.7872C45.9379 19.4689 44.5827 19.1844 43.9653 18.9336C43.348 18.6828 43.0393 18.3307 43.0393 17.8773C43.0393 17.4143 43.3287 17.0526 43.9074 16.7921C44.4862 16.5221 45.4026 16.387 46.6566 16.387C47.9009 16.387 48.8366 16.5606 49.4636 16.9079C50.0906 17.2552 50.4041 17.7519 50.4041 18.3982V18.731H54.1371V18.3693C54.1371 16.9706 53.4619 15.789 52.1114 14.8243C50.761 13.8597 48.9427 13.3774 46.6566 13.3774C44.3705 13.3774 42.5715 13.826 41.2596 14.7231C39.9477 15.6105 39.2918 16.7439 39.2918 18.1233C39.2918 19.3098 39.7886 20.2985 40.7821 21.0895C41.7757 21.8708 43.3239 22.4206 45.4267 22.7389C47.5199 23.0572 48.8945 23.3322 49.5504 23.5637C50.216 23.7952 50.5487 24.1858 50.5487 24.7357C50.5487 25.2855 50.2111 25.7147 49.5359 26.0234C48.8607 26.3321 47.8623 26.4864 46.5408 26.4864C45.229 26.4864 44.1968 26.3369 43.4444 26.0379C42.692 25.7389 42.3158 25.2373 42.3158 24.5331V24.1424H38.5684Z" fill="#161616"/>
<path d="M57.219 29.0474H60.9809V19.5991C61.4633 18.7889 62.0999 18.1233 62.8909 17.6024C63.6818 17.0815 64.5596 16.8211 65.5242 16.8211C66.6625 16.8211 67.5788 17.1346 68.2734 17.7616C68.9679 18.3789 69.3248 19.411 69.3441 20.858V29.0474H73.0916V19.5991C73.5642 18.7889 74.2201 18.1233 75.0594 17.6024C75.8986 17.0815 76.8053 16.8211 77.7795 16.8211C78.9081 16.8211 79.7956 17.1346 80.4418 17.7616C81.0978 18.3789 81.4354 19.4062 81.4547 20.8435V29.0474H85.2166V20.9158C85.2166 18.2632 84.6331 16.3677 83.4659 15.2295C82.3084 14.0912 80.8229 13.5221 79.0094 13.5221C77.6975 13.5221 76.4291 13.7778 75.204 14.289C73.979 14.7906 73.0144 15.543 72.3102 16.5462H72.2958C71.852 15.5623 71.1431 14.8147 70.1688 14.3035C69.1946 13.7826 68.0853 13.5221 66.8409 13.5221C65.6738 13.5221 64.5693 13.7247 63.5275 14.1298C62.4954 14.535 61.6272 15.1909 60.9231 16.0976H60.8941L60.7639 13.826H57.219V29.0474Z" fill="#161616"/>
<path d="M88.7037 32.9686C89.5622 33.7017 90.6811 34.2804 92.0605 34.7049C93.4495 35.1389 94.9061 35.356 96.4302 35.356C98.9189 35.356 101.027 34.7241 102.753 33.4605C104.48 32.2065 105.343 30.3979 105.343 28.0346V13.826H101.798L101.668 15.8227H101.639C101.176 15.1571 100.419 14.6121 99.3674 14.1877C98.316 13.7536 97.144 13.5366 95.8514 13.5366C93.4978 13.5366 91.583 14.2552 90.1072 15.6925C88.641 17.1298 87.9079 18.9673 87.9079 21.2052V21.6682C87.9079 23.8965 88.641 25.734 90.1072 27.1809C91.5734 28.6182 93.4833 29.3368 95.8369 29.3368C97.1392 29.3368 98.287 29.1536 99.2806 28.787C100.274 28.4205 101.046 27.9044 101.596 27.2388V28.0491C101.596 29.3513 101.084 30.3545 100.062 31.0586C99.0394 31.7725 97.7854 32.1294 96.2999 32.1294C95.0556 32.1294 93.9126 31.9461 92.8708 31.5795C91.8387 31.2226 91.0525 30.7934 90.5123 30.2918L88.7037 32.9686ZM91.7567 21.6972V21.1618C91.7567 19.9175 92.1907 18.8805 93.0589 18.051C93.9367 17.2214 95.2292 16.8066 96.9366 16.8066C98.0169 16.8066 98.9719 17.0236 99.8015 17.4577C100.631 17.8821 101.229 18.4995 101.596 19.3098V23.5637C101.248 24.2292 100.655 24.8128 99.8159 25.3144C98.9864 25.816 98.0266 26.0668 96.9366 26.0668C95.2389 26.0668 93.9511 25.652 93.0733 24.8225C92.1956 23.9833 91.7567 22.9415 91.7567 21.6972Z" fill="#161616"/>
<defs>
<clipPath id="clip0_1285_5335">
<rect width="29.3333" height="29.3333" fill="white" transform="translate(0 7)"/>
</clipPath>
</defs>
</svg>
